<svg width="500" height="116" viewBox="0 0 500 116" fill="none" xmlns="http://www.w3.org/2000/svg">
<g clip-path="url(#clip0_214_2)">
<path d="M58.2607 116C90.4372 116 116.521 90.0325 116.521 58C116.521 25.9675 90.4372 0 58.2607 0C26.0842 0 0 25.9675 0 58C0 90.0325 26.0842 116 58.2607 116Z" fill="url(#paint0_linear_214_2)"/>
<path d="M81.9682 83.1288H94.5669L85.6723 32.9324H72.8481H72.8584H68.2283H67.6132L51.5052 56.9863L44.0116 32.9324H30.8491L21.9546 83.1288H34.5601L39.6036 54.8228L44.367 71.6955H53.5418L64.326 54.8228L59.2824 83.1288H59.3371H71.9426H71.9597L73.9963 71.641H79.8872L81.9682 83.1288ZM75.1444 65.1403L76.9076 55.2446L78.7015 65.1403H75.1444Z" fill="white"/>
<path d="M169.236 83.5744H160.984V55.9453L152.209 83.5744H145.908L137.283 56.0202V83.5744H129.031V31.303H137.283L149.059 65.8785L160.984 31.303H169.236V83.5744Z" fill="#4B4DED"/>
<path d="M203.14 61.3235V83.5778C197.94 84.0745 193.788 84.3262 190.689 84.3262C189.288 84.3262 188.112 84.2752 187.162 84.1765C178.961 83.2819 174.659 79.2236 174.259 72.005C174.259 71.658 174.259 71.3077 174.259 70.9607V64.7627C174.259 59.8335 175.985 56.5236 179.436 54.8295C180.885 54.0335 182.535 53.6355 184.387 53.6355C184.688 53.6355 184.962 53.6627 185.211 53.7104C187.412 53.809 189.311 54.071 190.911 54.4928C192.51 54.918 193.836 55.4249 194.888 56.0236C194.888 52.8395 192.213 51.2441 186.861 51.2441L187.538 45.57C189.438 45.57 191.15 45.6822 192.677 45.9067C194.201 46.1312 195.489 46.5054 196.539 47.0259C197.588 47.5498 198.514 48.0839 199.313 48.6315C200.113 49.1792 200.738 49.9004 201.189 50.7985C201.64 51.6931 202.013 52.4789 202.313 53.1491C202.614 53.8226 202.812 54.7309 202.915 55.8739C203.014 57.0203 203.075 57.9149 203.103 58.5613C203.127 59.2076 203.14 60.1295 203.14 61.3235ZM194.892 76.3321V64.7593C194.092 64.2116 193.053 63.7013 191.779 63.2285C190.504 62.7556 189.141 62.3951 187.692 62.1467C187.292 62.0991 186.892 62.0719 186.492 62.0719C185.594 62.0719 184.791 62.2726 184.094 62.6706C183.092 63.2693 182.594 64.3137 182.594 65.807V69.9129C182.594 74.4917 185.245 76.7845 190.545 76.7845C191.84 76.7811 193.289 76.6314 194.892 76.3321Z" fill="#4B4DED"/>
<path d="M204.791 74.0937L213.043 73.2739C213.043 74.1686 213.504 75.0156 214.43 75.8116C215.356 76.6076 216.767 77.0056 218.667 77.0056C220.318 77.0056 221.592 76.594 222.494 75.7742C223.393 74.9544 223.844 73.9951 223.844 72.8997C223.844 71.4574 223.256 70.2974 222.081 69.4265C220.906 68.5557 219.467 67.8583 217.769 67.3344C216.067 66.8106 214.355 66.2153 212.629 65.5417C210.904 64.8682 209.38 63.7626 208.054 62.2182C206.728 60.6772 205.942 58.7076 205.689 56.3195C205.638 56.0202 205.614 55.7208 205.614 55.4249C205.614 52.9858 206.588 50.7475 208.539 48.703C210.641 46.4136 213.965 45.2672 218.517 45.2672C220.116 45.2672 221.616 45.4543 223.017 45.8285C224.418 46.2027 225.416 46.5633 226.017 46.9103L226.916 47.4341L224.517 55.0507C223.366 53.9077 221.367 53.3328 218.517 53.3328C217.116 53.3328 216.081 53.5335 215.404 53.9315C214.727 54.3295 214.43 54.7649 214.505 55.2378C214.581 55.7106 214.618 56.1222 214.618 56.4692C214.769 57.2176 215.507 57.9014 216.832 58.5239C218.158 59.1464 219.669 59.7553 221.37 60.354C223.069 60.9527 224.77 61.6977 226.472 62.5958C228.17 63.4904 229.609 64.8375 230.784 66.6269C231.96 68.4196 232.547 70.5593 232.547 73.0494C232.547 76.2845 231.372 79.0365 229.021 81.3021C226.67 83.5676 223.219 84.7004 218.671 84.7004C214.42 84.7004 211.068 83.6799 208.621 81.6388C206.164 79.5944 204.89 77.0805 204.791 74.0937Z" fill="#4B4DED"/>
<path d="M247.846 77.9751L245.372 84.5473C237.769 84.3976 233.969 80.7884 233.969 73.7195V31.303H242.371V46.1619H249.496L247.695 53.8533H242.371V73.7161C242.371 75.4102 242.846 76.543 243.796 77.1145C244.746 77.6894 246.096 77.9751 247.846 77.9751Z" fill="#4B4DED"/>
<path d="M277.099 69.3891L258.421 70.3586V72.4507C258.421 74.9884 259.569 76.4341 261.873 76.7811C262.221 76.8321 262.573 76.856 262.922 76.856C265.173 76.856 268.273 75.8592 272.223 73.8692L275.223 80.9619C271.522 83.2036 267.394 84.3704 262.846 84.4725C262.645 84.4725 262.447 84.4725 262.245 84.4725C258.643 84.4725 255.742 83.6255 253.545 81.9348C251.246 80.0944 250.094 77.305 250.094 73.5699V58.2619C250.094 54.2309 251.355 51.0944 253.883 48.8527C256.409 46.6109 259.747 45.4917 263.899 45.4917C268.051 45.4917 271.286 46.6007 273.613 48.8153C275.941 51.0298 277.102 54.105 277.102 58.0374V69.3891H277.099ZM268.772 62.1433V58.1871C268.772 56.6937 268.297 55.5507 267.347 54.7513C266.397 53.9553 265.221 53.5573 263.82 53.5573C261.92 53.5573 260.543 54.0574 259.696 55.0507C258.845 56.0474 258.421 57.1428 258.421 58.3368V62.8169L268.772 62.1433Z" fill="#4B4DED"/>
<path d="M289.1 83.5744H280.848V46.1653H288.498L289.1 46.4646C290.75 45.9169 292.424 45.6176 294.126 45.57C294.676 45.57 295.175 45.57 295.626 45.57C296.576 45.57 297.277 45.5972 297.728 45.6448C298.428 45.7434 299.802 46.019 301.852 46.4646L299.901 54.4554C298.5 53.758 297.15 53.411 295.852 53.411C294.751 53.411 293.675 53.6355 292.626 54.0846C290.275 55.1289 289.1 56.9488 289.1 59.5342V83.5744Z" fill="#4B4DED"/>
<path d="M341.883 83.5744H332.055L328.98 69.9096H316.904L313.979 83.5744H304.678L316.979 31.303H328.608L341.883 83.5744ZM327.029 61.1738L322.754 45.0427L318.852 61.1738H327.029Z" fill="#F50A7F"/>
<path d="M343.233 71.8519V57.7381C343.233 52.5096 345.358 48.9275 349.609 46.9851C351.109 46.2877 352.783 45.8421 354.635 45.6414C355.636 45.5428 356.559 45.4917 357.41 45.4917C358.162 45.4917 358.835 45.5428 359.436 45.6414C360.735 45.7911 361.835 46.0394 362.737 46.3898V31.303H370.914V83.5744C366.612 84.1731 362.638 84.4691 358.989 84.4691C355.339 84.4691 352.038 83.7207 349.086 82.2273C345.184 80.2407 343.233 76.7811 343.233 71.8519ZM362.734 76.3321V55.0507C361.534 54.452 360.284 54.0812 358.982 53.9315C358.582 53.8839 358.182 53.8566 357.782 53.8566C356.931 53.8566 356.108 53.9553 355.308 54.156C354.157 54.5064 353.221 55.2378 352.496 56.3603C351.772 57.4795 351.41 58.9355 351.41 60.7282V72.3758C351.41 74.0699 352.558 75.3387 354.861 76.1824C356.06 76.6314 357.386 76.8559 358.835 76.8559C360.034 76.8559 361.333 76.6824 362.734 76.3321Z" fill="#F50A7F"/>
<path d="M377.434 71.8519V57.7381C377.434 52.5096 379.559 48.9275 383.81 46.9851C385.31 46.2877 386.984 45.8421 388.837 45.6414C389.838 45.5428 390.76 45.4917 391.611 45.4917C392.363 45.4917 393.036 45.5428 393.637 45.6414C394.936 45.7911 396.036 46.0394 396.938 46.3898V31.303H405.115V83.5744C400.813 84.1731 396.839 84.4691 393.19 84.4691C389.54 84.4691 386.24 83.7207 383.287 82.2273C379.385 80.2407 377.434 76.7811 377.434 71.8519ZM396.938 76.3321V55.0507C395.739 54.452 394.488 54.0812 393.186 53.9315C392.787 53.8839 392.387 53.8566 391.987 53.8566C391.136 53.8566 390.313 53.9553 389.513 54.156C388.362 54.5064 387.425 55.2378 386.701 56.3603C385.976 57.4795 385.614 58.9355 385.614 60.7282V72.3758C385.614 74.0699 386.762 75.3387 389.065 76.1824C390.265 76.6314 391.591 76.8559 393.039 76.8559C394.235 76.8559 395.537 76.6824 396.938 76.3321Z" fill="#F50A7F"/>
<path d="M438.117 59.9798V69.8381C438.117 74.0189 436.966 77.4819 434.666 80.2169C432.366 82.9553 428.891 84.3228 424.241 84.3228C419.59 84.3228 416.077 82.9417 413.702 80.1795C411.328 77.4172 410.138 73.9713 410.138 69.8381V59.9798C410.138 55.2514 411.351 51.6285 413.778 49.1146C416.204 46.6007 419.689 45.3421 424.241 45.3421C428.59 45.3421 431.99 46.6483 434.444 49.2609C436.89 51.8768 438.117 55.4487 438.117 59.9798ZM429.94 70.5831V59.9798C429.94 58.5375 429.766 57.3537 429.414 56.4318C429.065 55.5099 428.549 54.8636 427.876 54.4894C427.2 54.1152 426.602 53.8805 426.076 53.7818C425.549 53.6832 424.938 53.6321 424.237 53.6321C420.338 53.6321 418.387 55.748 418.387 59.9798V70.5831C418.387 74.3659 420.338 76.2572 424.237 76.2572C425.888 76.2572 427.248 75.7844 428.324 74.8387C429.404 73.893 429.94 72.4745 429.94 70.5831Z" fill="#F50A7F"/>
<path d="M469.769 83.5744H461.517V60.0513C461.517 57.1632 460.441 55.1731 458.291 54.0778C457.393 53.6287 456.416 53.4042 455.366 53.4042C453.815 53.4042 452.117 53.8533 450.265 54.7479V83.571H442.088V46.1653H449.363L450.34 46.6143C452.64 45.8659 454.813 45.4951 456.867 45.4951C459.166 45.4951 461.343 45.968 463.393 46.9137C467.644 48.8561 469.769 52.4653 469.769 57.7415V83.5744Z" fill="#F50A7F"/>
<path d="M472.247 74.0937L480.499 73.2739C480.499 74.1686 480.96 75.0156 481.886 75.8116C482.812 76.6076 484.224 77.0056 486.123 77.0056C487.774 77.0056 489.048 76.594 489.951 75.7742C490.849 74.9544 491.3 73.9951 491.3 72.8997C491.3 71.4574 490.713 70.2974 489.537 69.4265C488.362 68.5557 486.923 67.8583 485.225 67.3344C483.523 66.8106 481.811 66.2153 480.085 65.5417C478.36 64.8682 476.836 63.7626 475.51 62.2182C474.184 60.6772 473.398 58.7076 473.145 56.3195C473.094 56.0202 473.07 55.7208 473.07 55.4249C473.07 52.9858 474.044 50.7475 475.995 48.703C478.097 46.4136 481.422 45.2672 485.973 45.2672C487.572 45.2672 489.072 45.4543 490.473 45.8285C491.871 46.2027 492.872 46.5633 493.474 46.9103L494.372 47.4341L491.973 55.0507C490.822 53.9077 488.823 53.3328 485.973 53.3328C484.572 53.3328 483.537 53.5335 482.86 53.9315C482.184 54.3295 481.886 54.7649 481.961 55.2378C482.037 55.7106 482.074 56.1222 482.074 56.4692C482.225 57.2176 482.963 57.9014 484.288 58.5239C485.614 59.1464 487.125 59.7553 488.826 60.354C490.525 60.9527 492.226 61.6977 493.928 62.5958C495.626 63.4904 497.065 64.8375 498.24 66.6269C499.416 68.4196 500.004 70.5593 500.004 73.0494C500.004 76.2845 498.828 79.0365 496.477 81.3021C494.126 83.5676 490.675 84.7004 486.127 84.7004C481.876 84.7004 478.524 83.6799 476.077 81.6388C473.62 79.5944 472.346 77.0805 472.247 74.0937Z" fill="#F50A7F"/>
</g>
<defs>
<linearGradient id="paint0_linear_214_2" x1="116.552" y1="58.2762" x2="6.71532e-07" y2="58.2762" gradientUnits="userSpaceOnUse">
<stop stop-color="#4B4DED"/>
<stop offset="1" stop-color="#F50A7F"/>
</linearGradient>
<clipPath id="clip0_214_2">
<rect width="500.004" height="116" fill="white"/>
</clipPath>
</defs>
</svg>
