<svg width="24" height="24" viewBox="0 0 24 24" fill="none" xmlns="http://www.w3.org/2000/svg">
<path d="M3.06694 2.18306C2.82286 1.93898 2.42714 1.93898 2.18306 2.18306C1.93898 2.42714 1.93898 2.82286 2.18306 3.06694L6.55662 7.44049C4.46305 8.86474 2.90424 11.0923 2.35022 13.7473C2.27971 14.0852 2.49647 14.4163 2.83437 14.4868C3.17227 14.5573 3.50335 14.3406 3.57386 14.0027C4.07862 11.5837 5.52959 9.57864 7.45892 8.34278L9.4417 10.3256C8.34121 11.1201 7.625 12.4139 7.625 13.875C7.625 16.2912 9.58376 18.25 12 18.25C13.4611 18.25 14.7549 17.5338 15.5494 16.4333L20.9331 21.8169C21.1771 22.061 21.5729 22.061 21.8169 21.8169C22.061 21.5729 22.061 21.1771 21.8169 20.9331L3.06694 2.18306ZM14.6493 15.5332C14.0967 16.4142 13.1168 17 12 17C10.2741 17 8.875 15.6009 8.875 13.875C8.875 12.7583 9.46079 11.7783 10.3418 11.2257L14.6493 15.5332ZM12.1543 9.50267L16.3723 13.7207C16.2928 11.4271 14.4479 9.58219 12.1543 9.50267ZM12 7C11.2877 7 10.5894 7.09192 9.91774 7.26606L8.91391 6.26224C9.89187 5.92913 10.9311 5.75 12 5.75C16.6168 5.75 20.6782 9.0914 21.6498 13.7473C21.7203 14.0852 21.5036 14.4163 21.1657 14.4868C20.8278 14.5573 20.4967 14.3406 20.4262 14.0027C19.5718 9.90861 16.0071 7 12 7Z" fill="#353030"/>
</svg>
