<svg width="24" height="24" viewBox="0 0 24 24" fill="none" xmlns="http://www.w3.org/2000/svg">
<path d="M3.28007 14.5404C4.16417 10.3036 7.85324 7.29358 12 7.29358C16.1467 7.29358 19.8357 10.3036 20.7199 14.5404C20.7929 14.8901 21.1355 15.1144 21.4852 15.0414C21.8349 14.9684 22.0592 14.6258 21.9862 14.2761C20.9807 9.45789 16.7777 6 12 6C7.22227 6 3.0192 9.45788 2.01377 14.2761C1.9408 14.6258 2.16512 14.9685 2.5148 15.0414C2.86448 15.1144 3.2071 14.8901 3.28007 14.5404ZM12 9.88074C9.49949 9.88074 7.47245 11.9078 7.47245 14.4083C7.47245 16.9088 9.49949 18.9358 12 18.9358C14.5005 18.9358 16.5275 16.9088 16.5275 14.4083C16.5275 11.9078 14.5005 9.88074 12 9.88074ZM8.76603 14.4083C8.76603 12.6222 10.2139 11.1743 12 11.1743C13.786 11.1743 15.2339 12.6222 15.2339 14.4083C15.2339 16.1943 13.786 17.6422 12 17.6422C10.2139 17.6422 8.76603 16.1943 8.76603 14.4083Z" fill="#353030"/>
</svg>
